# This file uses centimeters as units for non-parametric coordinates.

mtllib posters.mtl
g default
v -31.467682 15.924841 17.120497
v -31.467682 9.155722 17.120497
v -31.467682 15.924841 13.588767
v -31.467682 9.155722 13.588767
vt 0.167975 0.037123
vt 0.832026 0.037123
vt 0.167975 0.962877
vt 0.832026 0.962877
vn 1.000000 0.000000 0.000000
vn 1.000000 0.000000 0.000000
vn 1.000000 0.000000 0.000000
vn 1.000000 0.000000 0.000000
s off
g Poster2 Decoracion1
usemtl initialShadingGroup
f 1/1/1 2/2/2 4/4/3 3/3/4
g default
v -15.562997 15.924841 5.970090
v -15.562997 9.155722 5.970090
v -15.562997 15.924841 2.438360
v -15.562997 9.155722 2.438360
vt 0.167975 0.037123
vt 0.832026 0.037123
vt 0.167975 0.962877
vt 0.832026 0.962877
vn 1.000000 0.000000 0.000000
vn 1.000000 0.000000 0.000000
vn 1.000000 0.000000 0.000000
vn 1.000000 0.000000 0.000000
s off
g Decoracion1 Poster
usemtl initialShadingGroup
f 5/5/5 6/6/6 8/8/7 7/7/8
g default
v 4.756316 15.924841 38.058356
v 4.756316 9.155722 38.058356
v 1.224586 15.924841 38.058356
v 1.224586 9.155722 38.058356
vt 0.167975 0.037123
vt 0.832026 0.037123
vt 0.167975 0.962877
vt 0.832026 0.962877
vn 0.000000 0.000000 -1.000000
vn 0.000000 0.000000 -1.000000
vn 0.000000 0.000000 -1.000000
vn 0.000000 0.000000 -1.000000
s off
g Decoracion1 Poster3
usemtl initialShadingGroup
f 9/9/9 10/10/10 12/12/11 11/11/12
