# This file uses centimeters as units for non-parametric coordinates.

mtllib puerta.mtl
g default
v -6.381330 0.110202 -21.772877
v 4.019464 0.110202 -21.772877
v -6.381330 0.110202 -21.024155
v 4.019464 0.110202 -21.024155
v -6.381330 19.662783 -21.024158
v 4.019464 19.662783 -21.024158
v -6.381330 19.662783 -21.772877
v 4.019464 19.662783 -21.772877
vt 0.410933 0.613459
vt 0.583043 0.400746
vt 0.596490 0.413206
vt 0.423394 0.600011
vt 0.947666 0.738612
vt 0.774570 0.925417
vt 0.960127 0.725165
vt 0.058770 0.262145
vt 0.961114 0.751073
vt 0.231866 0.075340
vt 0.608951 0.399759
vt 0.788018 0.937877
vt 0.762110 0.938864
vt 0.409946 0.587550
vn 0.000000 -1.000000 0.000000
vn 0.000000 -1.000000 0.000000
vn 0.000000 -1.000000 0.000000
vn 0.000000 -1.000000 0.000000
vn 0.000000 0.000000 1.000000
vn 0.000000 0.000000 1.000000
vn 0.000000 0.000000 1.000000
vn 0.000000 0.000000 1.000000
vn 0.000000 1.000000 0.000000
vn 0.000000 1.000000 0.000000
vn 0.000000 1.000000 0.000000
vn 0.000000 1.000000 0.000000
vn 0.000000 0.000000 -1.000000
vn 0.000000 0.000000 -1.000000
vn 0.000000 0.000000 -1.000000
vn 0.000000 0.000000 -1.000000
vn 1.000000 0.000000 0.000000
vn 1.000000 0.000000 0.000000
vn 1.000000 0.000000 0.000000
vn 1.000000 0.000000 0.000000
vn -1.000000 0.000000 0.000000
vn -1.000000 0.000000 0.000000
vn -1.000000 0.000000 0.000000
vn -1.000000 0.000000 0.000000
s off
g Puerta
usemtl lambert20SG
f 1/14/1 2/2/2 4/3/3 3/4/4
f 3/4/5 4/3/6 6/5/7 5/6/8
f 5/6/9 6/5/10 8/9/11 7/12/12
f 7/8/13 8/10/14 2/2/15 1/14/16
f 2/11/17 8/7/18 6/5/19 4/3/20
f 3/4/21 5/6/22 7/13/23 1/1/24
