# This file uses centimeters as units for non-parametric coordinates.

mtllib puzzle.mtl
g default
v -29.240299 8.603086 45.273188
v -19.779821 8.603086 45.273188
v -29.240299 13.688013 45.273188
v -19.779821 13.688013 45.273188
v -29.240299 13.688013 44.901862
v -19.779821 13.688013 44.901862
v -29.240299 8.603086 44.901862
v -19.779821 8.603086 44.901862
v -28.724657 13.220457 44.901862
v -20.295464 13.220457 44.901862
v -20.295464 9.070642 44.901862
v -28.724657 9.070642 44.901862
v -28.724657 13.220457 45.037656
v -20.295464 13.220457 45.037656
v -20.295464 9.070642 45.037656
v -28.724657 9.070642 45.037656
vt 0.780676 0.860661
vt 0.213309 0.856987
vt 0.215284 0.552031
vt 0.782652 0.555706
vt 0.193015 0.551887
vt 0.782796 0.533437
vt 0.889762 0.428405
vt 0.153765 0.579674
vt 0.243854 0.915640
vt 0.842196 0.833018
vt 0.802946 0.860806
vt 0.213164 0.879256
vt 0.161909 0.579727
vt 0.752053 0.505196
vt 0.243907 0.907497
vt 0.834052 0.832966
vt 0.752106 0.497052
vt 0.843808 0.584144
vt 0.749373 0.918915
vt 0.890578 0.062102
vt 0.152153 0.828549
vt 0.146535 0.060445
vt 0.749426 0.910771
vt 0.246587 0.493778
vt 0.145719 0.426748
vt 0.160297 0.828602
vt 0.246534 0.501922
vt 0.835664 0.584091
vt 0.780532 0.882931
vt 0.191039 0.856842
vt 0.215428 0.529762
vt 0.804921 0.555850
vn 0.000000 0.000000 1.000000
vn 0.000000 0.000000 1.000000
vn 0.000000 0.000000 1.000000
vn 0.000000 0.000000 1.000000
vn 0.000000 1.000000 0.000000
vn 0.000000 1.000000 0.000000
vn 0.000000 1.000000 0.000000
vn 0.000000 1.000000 0.000000
vn 0.000000 0.000000 -1.000000
vn 0.000000 0.000000 -1.000000
vn 0.000000 0.000000 -1.000000
vn 0.000000 0.000000 -1.000000
vn 0.000000 -1.000000 0.000000
vn 0.000000 -1.000000 0.000000
vn 0.000000 -1.000000 0.000000
vn 0.000000 -1.000000 0.000000
vn 1.000000 0.000000 0.000000
vn 1.000000 0.000000 0.000000
vn 1.000000 0.000000 0.000000
vn 1.000000 0.000000 0.000000
vn -1.000000 0.000000 0.000000
vn -1.000000 0.000000 0.000000
vn -1.000000 0.000000 0.000000
vn -1.000000 0.000000 0.000000
vn 0.000000 0.000000 -1.000000
vn 0.000000 0.000000 -1.000000
vn 0.000000 0.000000 -1.000000
vn 0.000000 0.000000 -1.000000
vn -0.000002 0.000000 -1.000000
vn -0.000002 0.000000 -1.000000
vn -0.000002 0.000000 -1.000000
vn -0.000002 0.000000 -1.000000
vn 0.000000 0.000000 -1.000000
vn 0.000000 0.000000 -1.000000
vn 0.000000 0.000000 -1.000000
vn 0.000000 0.000000 -1.000000
vn 0.000004 0.000000 -1.000000
vn 0.000004 0.000000 -1.000000
vn 0.000004 0.000000 -1.000000
vn 0.000004 0.000000 -1.000000
vn 0.000000 -1.000000 0.000000
vn 0.000000 -1.000000 0.000000
vn 0.000000 -1.000000 0.000000
vn 0.000000 -1.000000 0.000000
vn -1.000000 0.000000 0.000000
vn -1.000000 0.000000 0.000000
vn -1.000000 0.000000 0.000000
vn -1.000000 0.000000 0.000000
vn 0.000000 1.000000 0.000000
vn 0.000000 1.000000 0.000000
vn 0.000000 1.000000 0.000000
vn 0.000000 1.000000 0.000000
vn 1.000000 0.000000 0.000000
vn 1.000000 0.000000 0.000000
vn 1.000000 0.000000 0.000000
vn 1.000000 0.000000 0.000000
s off
g PanelAcertijo Puzzle1
usemtl lambert17SG
f 1/1/1 2/2/2 4/3/3 3/4/4
f 3/4/5 4/3/6 6/31/7 5/6/8
f 13/7/9 14/25/10 15/22/11 16/20/12
f 7/29/13 8/12/14 2/2/15 1/1/16
f 2/2/17 8/30/18 6/5/19 4/3/20
f 7/11/21 1/1/22 3/4/23 5/32/24
f 5/6/25 6/31/26 10/27/27 9/14/28
f 6/5/29 8/30/30 11/26/31 10/13/32
f 8/12/33 7/29/34 12/23/35 11/15/36
f 7/11/37 5/32/38 9/28/39 12/16/40
f 9/14/41 10/27/42 14/24/43 13/17/44
f 10/13/45 11/26/46 15/21/47 14/8/48
f 11/15/49 12/23/50 16/19/51 15/9/52
f 12/16/53 9/28/54 13/18/55 16/10/56
g default
v -31.118996 8.603086 39.946200
v -31.118996 8.603086 26.501307
v -31.118996 13.688013 39.946200
v -31.118996 13.688013 26.501307
v -31.490324 13.688013 39.946200
v -31.490324 13.688013 26.501307
v -31.490324 8.603086 39.946200
v -31.490324 8.603086 26.501307
v -31.118996 9.085682 39.507737
v -31.118996 9.085682 26.939773
v -31.118996 13.205418 26.939773
v -31.118996 13.205418 39.507737
v -31.379023 9.085682 39.507737
v -31.379023 9.085682 26.939773
v -31.379023 13.205418 26.939773
v -31.379023 13.205418 39.507737
vt 0.080652 0.137350
vt 0.914811 0.822186
vt 0.839364 0.525283
vt 0.109245 0.601347
vt 0.145666 0.576671
vt 0.861731 0.563969
vt 0.861556 0.583210
vt 0.164906 0.576847
vt 0.859149 0.846686
vt 0.162500 0.840323
vt 0.878390 0.846862
vt 0.162324 0.859564
vt 0.901337 0.822063
vt 0.184815 0.884777
vt 0.839241 0.538756
vt 0.122719 0.601470
vt 0.184692 0.898250
vt 0.107296 0.814811
vt 0.188153 0.519335
vt 0.083473 0.419596
vt 0.916760 0.608722
vt 0.944512 0.410992
vt 0.188029 0.532808
vt 0.835903 0.904198
vt 0.941691 0.128746
vt 0.903287 0.608599
vt 0.836026 0.890725
vt 0.120769 0.814934
vt 0.165082 0.557607
vt 0.880796 0.583385
vt 0.858974 0.865926
vt 0.143260 0.840148
vn 1.000000 0.000000 0.000000
vn 1.000000 0.000000 0.000000
vn 1.000000 0.000000 0.000000
vn 1.000000 0.000000 0.000000
vn 0.000000 1.000000 0.000000
vn 0.000000 1.000000 0.000000
vn 0.000000 1.000000 0.000000
vn 0.000000 1.000000 0.000000
vn -1.000000 0.000000 0.000000
vn -1.000000 0.000000 0.000000
vn -1.000000 0.000000 0.000000
vn -1.000000 0.000000 0.000000
vn 0.000000 -1.000000 0.000000
vn 0.000000 -1.000000 0.000000
vn 0.000000 -1.000000 0.000000
vn 0.000000 -1.000000 0.000000
vn 0.000000 0.000000 -1.000000
vn 0.000000 0.000000 -1.000000
vn 0.000000 0.000000 -1.000000
vn 0.000000 0.000000 -1.000000
vn 0.000000 0.000000 1.000000
vn 0.000000 0.000000 1.000000
vn 0.000000 0.000000 1.000000
vn 0.000000 0.000000 1.000000
vn 1.000000 0.000001 0.000000
vn 1.000000 0.000001 0.000000
vn 1.000000 0.000001 0.000000
vn 1.000000 0.000001 0.000000
vn 1.000000 0.000000 0.000000
vn 1.000000 0.000000 0.000000
vn 1.000000 0.000000 0.000000
vn 1.000000 0.000000 0.000000
vn 1.000000 -0.000000 0.000000
vn 1.000000 -0.000000 0.000000
vn 1.000000 -0.000000 0.000000
vn 1.000000 -0.000000 0.000000
vn 1.000000 0.000000 0.000000
vn 1.000000 0.000000 0.000000
vn 1.000000 0.000000 0.000000
vn 1.000000 0.000000 0.000000
vn 0.000000 1.000000 0.000000
vn 0.000000 1.000000 0.000000
vn 0.000000 1.000000 0.000000
vn 0.000000 1.000000 0.000000
vn 0.000000 0.000000 1.000000
vn 0.000000 0.000000 1.000000
vn 0.000000 0.000000 1.000000
vn 0.000000 0.000000 1.000000
vn 0.000000 -1.000000 0.000000
vn 0.000000 -1.000000 0.000000
vn 0.000000 -1.000000 0.000000
vn 0.000000 -1.000000 0.000000
vn 0.000000 0.000000 -1.000000
vn 0.000000 0.000000 -1.000000
vn 0.000000 0.000000 -1.000000
vn 0.000000 0.000000 -1.000000
s off
g Puzzle1 PanelServicio
usemtl lambert16SG
f 29/33/57 30/57/58 31/54/59 32/52/60
f 19/61/61 20/38/62 22/39/63 21/40/64
f 21/40/65 22/39/66 24/41/67 23/42/68
f 23/42/69 24/41/70 18/63/71 17/44/72
f 18/43/73 24/41/74 22/39/75 20/62/76
f 23/42/77 17/64/78 19/37/79 21/40/80
f 17/44/81 18/63/82 26/59/83 25/46/84
f 18/43/85 20/62/86 27/58/87 26/45/88
f 20/38/89 19/61/90 28/55/91 27/47/92
f 19/37/93 17/64/94 25/60/95 28/48/96
f 25/46/97 26/59/98 30/56/99 29/49/100
f 26/45/101 27/58/102 31/53/103 30/34/104
f 27/47/105 28/55/106 32/51/107 31/35/108
f 28/48/109 25/60/110 29/50/111 32/36/112
g default
v 5.438099 8.274575 -20.355177
v 11.007957 8.274575 -20.355177
v 5.438099 11.903813 -20.355177
v 11.007957 11.903813 -20.355177
v 5.438099 11.903813 -20.692629
v 11.007957 11.903813 -20.692629
v 5.438099 8.274575 -20.692629
v 11.007957 8.274575 -20.692629
v 5.734586 8.543556 -20.355177
v 10.711472 8.543556 -20.355177
v 10.711472 11.634832 -20.355177
v 5.734586 11.634832 -20.355177
v 5.734586 8.543556 -20.537310
v 10.711472 8.543556 -20.537310
v 10.711472 11.634832 -20.537310
v 5.734586 11.634832 -20.537310
vt 0.174651 0.068233
vt 0.192506 0.599924
vt 0.286433 0.948427
vt 0.798009 0.858917
vt 0.757820 0.881570
vt 0.261471 0.910552
vt 0.261436 0.882196
vt 0.729464 0.881606
vt 0.261051 0.577235
vt 0.729079 0.576645
vt 0.232695 0.577271
vt 0.729044 0.548289
vt 0.207810 0.599905
vt 0.704102 0.525719
vt 0.286413 0.933122
vt 0.782705 0.858936
vt 0.704082 0.510414
vt 0.797682 0.599161
vt 0.704634 0.947899
vt 0.174493 0.466085
vt 0.192834 0.859680
vt 0.815027 0.466339
vt 0.704615 0.932595
vt 0.285881 0.510942
vt 0.815184 0.068487
vt 0.208138 0.859661
vt 0.285900 0.526246
vt 0.782377 0.599180
vt 0.729500 0.909961
vt 0.233080 0.882232
vt 0.261015 0.548880
vt 0.757435 0.576609
vn 0.000000 0.000000 1.000000
vn 0.000000 0.000000 1.000000
vn 0.000000 0.000000 1.000000
vn 0.000000 0.000000 1.000000
vn 0.000000 1.000000 0.000000
vn 0.000000 1.000000 0.000000
vn 0.000000 1.000000 0.000000
vn 0.000000 1.000000 0.000000
vn 0.000000 0.000000 -1.000000
vn 0.000000 0.000000 -1.000000
vn 0.000000 0.000000 -1.000000
vn 0.000000 0.000000 -1.000000
vn 0.000000 -1.000000 0.000000
vn 0.000000 -1.000000 0.000000
vn 0.000000 -1.000000 0.000000
vn 0.000000 -1.000000 0.000000
vn 1.000000 0.000000 0.000000
vn 1.000000 0.000000 0.000000
vn 1.000000 0.000000 0.000000
vn 1.000000 0.000000 0.000000
vn -1.000000 0.000000 0.000000
vn -1.000000 0.000000 0.000000
vn -1.000000 0.000000 0.000000
vn -1.000000 0.000000 0.000000
vn 0.000000 0.000000 1.000000
vn 0.000000 0.000000 1.000000
vn 0.000000 0.000000 1.000000
vn 0.000000 0.000000 1.000000
vn -0.000000 0.000000 1.000000
vn -0.000000 0.000000 1.000000
vn -0.000000 0.000000 1.000000
vn -0.000000 0.000000 1.000000
vn 0.000000 0.000000 1.000000
vn 0.000000 0.000000 1.000000
vn 0.000000 0.000000 1.000000
vn 0.000000 0.000000 1.000000
vn 0.000000 0.000000 1.000000
vn 0.000000 0.000000 1.000000
vn 0.000000 0.000000 1.000000
vn 0.000000 0.000000 1.000000
vn 0.000000 1.000000 0.000000
vn 0.000000 1.000000 0.000000
vn 0.000000 1.000000 0.000000
vn 0.000000 1.000000 0.000000
vn -1.000000 0.000000 0.000000
vn -1.000000 0.000000 0.000000
vn -1.000000 0.000000 0.000000
vn -1.000000 0.000000 0.000000
vn 0.000000 -1.000000 0.000000
vn 0.000000 -1.000000 0.000000
vn 0.000000 -1.000000 0.000000
vn 0.000000 -1.000000 0.000000
vn 1.000000 0.000000 0.000000
vn 1.000000 0.000000 0.000000
vn 1.000000 0.000000 0.000000
vn 1.000000 0.000000 0.000000
s off
g Puzzle1 PanelSalida
usemtl lambert18SG
f 45/65/113 46/89/114 47/86/115 48/84/116
f 35/93/117 36/70/118 38/71/119 37/72/120
f 37/72/121 38/71/122 40/73/123 39/74/124
f 39/74/125 40/73/126 34/95/127 33/76/128
f 34/75/129 40/73/130 38/71/131 36/94/132
f 39/74/133 33/96/134 35/69/135 37/72/136
f 33/76/137 34/95/138 42/91/139 41/78/140
f 34/75/141 36/94/142 43/90/143 42/77/144
f 36/70/145 35/93/146 44/87/147 43/79/148
f 35/69/149 33/96/150 41/92/151 44/80/152
f 41/78/153 42/91/154 46/88/155 45/81/156
f 42/77/157 43/90/158 47/85/159 46/66/160
f 43/79/161 44/87/162 48/83/163 47/67/164
f 44/80/165 41/92/166 45/82/167 48/68/168
